<?xml version="1.0" encoding="UTF-8"?>
<svg xmlns="http://www.w3.org/2000/svg" width="60" height="60" viewBox="0 0 60 60" fill="none">
  <path d="M54.8457 12.0116C52.4153 12.0116 50.4363 13.9979 50.4363 16.4373C50.4363 18.0868 51.3506 19.5388 52.6931 20.2938L40.2634 33.5011L31.5371 20.4216C33.0185 19.713 34.037 18.1913 34.037 16.4373C34.037 13.9979 32.0579 12.0116 29.6276 12.0116C27.1972 12.0116 25.2181 13.9979 25.2181 16.4373C25.2181 18.1913 26.2366 19.713 27.718 20.4216L18.9917 33.5011L6.56204 20.2822C7.90454 19.5271 8.81883 18.0751 8.81883 16.4257C8.81883 13.9863 6.8398 12 4.40941 12C1.97903 12 0 13.9863 0 16.4257C0 18.4817 1.41194 20.2241 3.30995 20.712L6.70092 47.8933C6.77036 48.4857 7.27958 48.9271 7.86982 48.9271H51.3853C51.9755 48.9271 52.4848 48.4857 52.5542 47.8933L55.9452 20.712C57.8432 20.2241 59.2551 18.4933 59.2551 16.4257C59.2551 13.9863 57.2761 12.0116 54.8457 12.0116ZM27.5791 16.4257C27.5791 15.2989 28.4934 14.3697 29.6276 14.3697C30.7502 14.3697 31.676 15.2873 31.676 16.4257C31.676 17.564 30.7617 18.4817 29.6276 18.4817C28.505 18.4817 27.5791 17.564 27.5791 16.4257ZM4.40941 18.4817C3.28681 18.4817 2.36095 17.564 2.36095 16.4257C2.36095 15.2873 3.27523 14.3697 4.40941 14.3697C5.54359 14.3697 6.45788 15.2873 6.45788 16.4257C6.44631 17.564 5.53202 18.4817 4.40941 18.4817ZM50.3437 46.5574H8.91141L8.66838 44.6176H41.3629C42.011 44.6176 42.5433 44.0833 42.5433 43.4328C42.5433 42.7823 42.011 42.2479 41.3629 42.2479H8.37904L5.99495 23.1397L18.2858 36.2076C18.5288 36.4748 18.8876 36.6026 19.2463 36.5793C19.6051 36.5445 19.9292 36.3586 20.1259 36.0566L29.6276 21.8155L39.1292 36.045C39.326 36.347 39.65 36.5329 40.0088 36.5677C40.3676 36.6026 40.7147 36.4632 40.9694 36.196L53.2602 23.1281L50.3437 46.5574ZM54.8457 18.4817C53.7231 18.4817 52.7972 17.564 52.7972 16.4257C52.7972 15.2873 53.7115 14.3697 54.8457 14.3697C55.9799 14.3697 56.8942 15.2873 56.8942 16.4257C56.8942 17.564 55.9799 18.4817 54.8457 18.4817Z" fill="white"></path>
  <path d="M45.9197 42.0571H45.1092C44.3887 42.0571 43.7969 42.6381 43.7969 43.3453C43.7969 44.0525 44.3887 44.6334 45.1092 44.6334H45.9197C46.6401 44.6334 47.232 44.0525 47.232 43.3453C47.232 42.6381 46.653 42.0571 45.9197 42.0571Z" fill="white"></path>
</svg>