<?xml version="1.0" encoding="utf-8"?>
<!-- Generator: Adobe Illustrator 22.1.0, SVG Export Plug-In . SVG Version: 6.00 Build 0)  -->
<svg version="1.1" id="Layer_1" xmlns="http://www.w3.org/2000/svg" xmlns:xlink="http://www.w3.org/1999/xlink" x="0px" y="0px"
	 viewBox="0 0 512 512" style="enable-background:new 0 0 512 512;" xml:space="preserve">
<style type="text/css">
	.st0{fill:#FFFFFF;}
	.st1{clip-path:url(#SVGID_2_);fill:#FFFFFF;}
	.st2{clip-path:url(#SVGID_2_);}
	.st3{clip-path:url(#SVGID_4_);fill:#FFFFFF;}
	.st4{clip-path:url(#SVGID_6_);fill:url(#SVGID_7_);}
	.st5{clip-path:url(#SVGID_9_);fill:url(#SVGID_10_);}
	.st6{clip-path:url(#SVGID_12_);fill:url(#SVGID_13_);}
	.st7{clip-path:url(#SVGID_15_);fill:#626D77;}
	.st8{clip-path:url(#SVGID_15_);fill:#8699A3;}
	.st9{clip-path:url(#SVGID_15_);fill:#8D9AA1;}
	.st10{clip-path:url(#SVGID_17_);fill:url(#SVGID_18_);}
	.st11{clip-path:url(#SVGID_20_);fill:url(#SVGID_21_);}
	.st12{clip-path:url(#SVGID_23_);fill:#B4BDC3;}
	.st13{clip-path:url(#SVGID_25_);fill:url(#SVGID_26_);}
	.st14{clip-path:url(#SVGID_28_);fill:#505C61;}
	.st15{clip-path:url(#SVGID_28_);fill:#0B1F28;}
	.st16{clip-path:url(#SVGID_28_);fill:#8F9CA4;}
	.st17{clip-path:url(#SVGID_30_);fill:url(#SVGID_31_);}
	.st18{clip-path:url(#SVGID_33_);fill:url(#SVGID_34_);}
	.st19{clip-path:url(#SVGID_36_);fill:#B4BDC3;}
	.st20{clip-path:url(#SVGID_38_);fill:url(#SVGID_39_);}
	.st21{clip-path:url(#SVGID_41_);fill:url(#SVGID_42_);}
	.st22{clip-path:url(#SVGID_44_);fill:url(#SVGID_45_);}
	.st23{clip-path:url(#SVGID_47_);fill:#FFFFFF;}
</style>
<g>
	<g>
		<g>
			<path class="st0" d="M469.1,42.7H42.9C19.2,42.7,0,61.9,0,85.5v234.3c0,23.6,19.2,42.9,42.9,42.9h145l-14.6,43.7
				c-13.8,3.6-24,16.1-24,31V448h-32c-5.9,0-10.7,4.8-10.7,10.7c0,5.9,4.8,10.7,10.7,10.7H166h0h180h48.7c5.9,0,10.7-4.8,10.7-10.7
				c0-5.9-4.8-10.7-10.7-10.7h-32v-10.7c0-14.9-10.2-27.4-24-31l-14.6-43.7h145c23.6,0,42.9-19.2,42.9-42.9V85.5
				C512,61.9,492.8,42.7,469.1,42.7z M330.7,426.7c5.9,0,10.7,4.8,10.7,10.7V448H170.7v-10.7c0-5.9,4.8-10.7,10.7-10.7L330.7,426.7
				L330.7,426.7z M196.1,405.3l14.2-42.7h91.3l14.2,42.7H196.1z M490.7,319.8c0,11.9-9.7,21.5-21.5,21.5H309.3H202.7H42.9
				c-11.9,0-21.5-9.7-21.5-21.5v-10.5h405.2c5.9,0,10.7-4.8,10.7-10.7c0-5.9-4.8-10.7-10.7-10.7H21.3V85.5C21.3,73.7,31,64,42.9,64
				h426.3c11.8,0,21.4,9.6,21.5,21.3H87.2c-5.9,0-10.7,4.8-10.7,10.7c0,5.9,4.8,10.7,10.7,10.7h403.5L490.7,319.8L490.7,319.8z"/>
			<path class="st0" d="M54.5,85.3h-4.8C43.8,85.3,39,90.1,39,96c0,5.9,4.8,10.7,10.7,10.7h4.8c5.9,0,10.7-4.8,10.7-10.7
				C65.1,90.1,60.4,85.3,54.5,85.3z"/>
			<path class="st0" d="M457.3,309.3h4.5c5.9,0,10.7-4.8,10.7-10.7c0-5.9-4.8-10.7-10.7-10.7h-4.5c-5.9,0-10.7,4.8-10.7,10.7
				C446.7,304.6,451.4,309.3,457.3,309.3z"/>
		</g>
	</g>
</g>
<g>
	<g>
		<defs>
			<rect id="SVGID_1_" x="-147.3" y="-1326" width="578.9" height="409.3"/>
		</defs>
		<clipPath id="SVGID_2_">
			<use xlink:href="#SVGID_1_"  style="overflow:visible;"/>
		</clipPath>
		<polygon class="st1" points="182.8,-1177.7 157.1,-1177.7 157.1,-1066.6 235.9,-1066.6 235.9,-1088.3 182.8,-1088.3 		"/>
		<g class="st2">
			<defs>
				<rect id="SVGID_3_" x="-147.3" y="-1326" width="578.9" height="409.3"/>
			</defs>
			<clipPath id="SVGID_4_">
				<use xlink:href="#SVGID_3_"  style="overflow:visible;"/>
			</clipPath>
			<path class="st3" d="M292.4-1109h20.9v19.4c-3.8,1.5-11.4,2.9-18.5,2.9c-23.1,0-30.8-11.7-30.8-35.6c0-22.7,7.3-36.1,30.4-36.1
				c12.8,0,20.2,4,26.2,11.7l16-14.7c-9.7-13.9-26.8-18.1-42.7-18.1c-35.9,0-54.8,19.6-54.8,57c0,37.2,17.1,57.4,54.6,57.4
				c17.2,0,34.1-4.4,43.3-10.8v-53.9h-44.6V-1109z"/>
		</g>
		<g class="st2">
			<defs>
				<path id="SVGID_5_" d="M-53.2-1121.7c0,47.5,38.5,85.9,85.9,85.9c47.3,0,85.6-38.1,86-85.3v-1.3c-0.4-47.2-38.7-85.3-86-85.3
					C-14.7-1207.6-53.2-1169.2-53.2-1121.7"/>
			</defs>
			<clipPath id="SVGID_6_">
				<use xlink:href="#SVGID_5_"  style="overflow:visible;"/>
			</clipPath>
			
				<radialGradient id="SVGID_7_" cx="-1.7474" cy="501.7594" r="0.6876" gradientTransform="matrix(130.2987 0 0 130.2987 257.2119 -66502.9219)" gradientUnits="userSpaceOnUse">
				<stop  offset="0" style="stop-color:#BF0C3F"/>
				<stop  offset="0.5" style="stop-color:#BF0C3F"/>
				<stop  offset="0.7526" style="stop-color:#BD0B3E"/>
				<stop  offset="0.8592" style="stop-color:#B6093A"/>
				<stop  offset="0.9381" style="stop-color:#A90534"/>
				<stop  offset="1" style="stop-color:#99002C"/>
			</radialGradient>
			<rect x="-53.2" y="-1207.6" class="st4" width="171.9" height="171.9"/>
		</g>
		<g class="st2">
			<defs>
				<path id="SVGID_8_" d="M-25.5-1179.9c-28.7,28.7-31.6,72.5-6.4,97.7c25.2,25.2,69,22.3,97.7-6.4c28.8-28.8,31.7-72.5,6.5-97.8
					c-11.5-11.5-26.9-17.2-43-17.2C10.2-1203.5-9.9-1195.5-25.5-1179.9"/>
			</defs>
			<clipPath id="SVGID_9_">
				<use xlink:href="#SVGID_8_"  style="overflow:visible;"/>
			</clipPath>
			
				<linearGradient id="SVGID_10_" gradientUnits="userSpaceOnUse" x1="-6.7218" y1="513.2629" x2="-6.0341" y2="513.2629" gradientTransform="matrix(65.9406 181.1704 181.1704 -65.9406 -92548.5781 33866.5938)">
				<stop  offset="0" style="stop-color:#F38895"/>
				<stop  offset="8.510861e-02" style="stop-color:#EB7588"/>
				<stop  offset="0.3135" style="stop-color:#D84869"/>
				<stop  offset="0.5171" style="stop-color:#CA2752"/>
				<stop  offset="0.6866" style="stop-color:#C21344"/>
				<stop  offset="0.8011" style="stop-color:#BF0C3F"/>
				<stop  offset="1" style="stop-color:#BF0C3F"/>
			</linearGradient>
			<polygon class="st5" points="79.4,-1253.2 144.6,-1074.1 -39,-1007.3 -104.2,-1186.4 			"/>
		</g>
		<g class="st2">
			<defs>
				<path id="SVGID_11_" d="M-5.2-1147.8c0,6.3,5.2,11.5,11.6,11.5c6.4,0,11.6-5.1,11.6-11.5c0-6.3-5.2-11.5-11.6-11.5
					C0-1159.3-5.2-1154.2-5.2-1147.8 M30.7-1158.1h-0.4v0.1l-0.5,0.2l0.5,0.8l0,72.6l-2.1,1.2l1.6,1.2c0.1,0.1,0.6,0.4,1.2,0.3H55
					c0.3,0,0.5-0.2,0.5-0.6v-6.7c0-0.5-0.1-0.7-0.2-0.8l-1.3-2H38.4l0.1-66.1c0-0.4-0.2-0.5-0.2-0.5l-1.2-2L30.7-1158.1z M33.5-1194
					l-1.8,0.6c-40.4,0-70.6,33.7-70.6,73.9c0,19.4,7.6,37.7,21.5,51.5c13.8,13.8,32.1,20.7,51.7,20.7c19.6,0,38.1-7.4,51.9-21.2
					c13.9-13.8,21.5-32.1,21.5-51.5v-4.2l-1.7-1.5l-53.2,0v8.5l1.3,1.8c0,0,0.2,0.2,0.5,0.2h40.5h3.9h0h0c-2.3,33.6-30.7,60-64.6,60
					c-17.3,0-33.5-6.7-45.8-18.8c-12.2-12.1-18.9-28.3-18.9-45.5c0-17.2,6.4-33.7,18.6-45.8c12.3-12.1,27.7-18.5,46.2-18.9l3.5-0.1
					h0.4c0.2,0,0.5,0,0.5-0.6v-7c0-0.5-0.2-0.7-0.2-0.8l-1.6-2L33.5-1194z"/>
			</defs>
			<clipPath id="SVGID_12_">
				<use xlink:href="#SVGID_11_"  style="overflow:visible;"/>
			</clipPath>
			
				<linearGradient id="SVGID_13_" gradientUnits="userSpaceOnUse" x1="-5.0202" y1="515.7241" x2="-4.3326" y2="515.7241" gradientTransform="matrix(151.2476 151.2476 151.2476 -151.2476 -77260.3438 77588.5625)">
				<stop  offset="0" style="stop-color:#CD425C"/>
				<stop  offset="8.890951e-02" style="stop-color:#BE3351"/>
				<stop  offset="0.2496" style="stop-color:#AA1F43"/>
				<stop  offset="0.4311" style="stop-color:#9B1039"/>
				<stop  offset="0.649" style="stop-color:#930833"/>
				<stop  offset="1" style="stop-color:#900531"/>
			</linearGradient>
			<polygon class="st6" points="34.3,-1267.8 181.2,-1120.9 34.3,-974 -112.6,-1120.9 			"/>
		</g>
		<g class="st2">
			<defs>
				<rect id="SVGID_14_" x="-147.3" y="-1326" width="578.9" height="409.3"/>
			</defs>
			<clipPath id="SVGID_15_">
				<use xlink:href="#SVGID_14_"  style="overflow:visible;"/>
			</clipPath>
			<polygon class="st7" points="30,-1084.9 28.3,-1083.2 54,-1083.2 52.4,-1084.9 			"/>
			<polygon class="st8" points="52.4,-1090 54,-1091.7 37.2,-1091.7 35.2,-1090 			"/>
			<polygon class="st9" points="37.2,-1160.3 28.3,-1160.3 29.9,-1158.7 35.3,-1158.7 			"/>
		</g>
		<g class="st2">
			<defs>
				<polygon id="SVGID_16_" points="35.3,-1158.7 35.3,-1090.2 37.2,-1091.7 37.2,-1160.3 				"/>
			</defs>
			<clipPath id="SVGID_17_">
				<use xlink:href="#SVGID_16_"  style="overflow:visible;"/>
			</clipPath>
			
				<linearGradient id="SVGID_18_" gradientUnits="userSpaceOnUse" x1="-83.0051" y1="992.7953" x2="-82.3175" y2="992.7953" gradientTransform="matrix(2.7744 0 0 -2.7744 265.5474 1629.1705)">
				<stop  offset="0" style="stop-color:#B4BDC3"/>
				<stop  offset="2.273530e-02" style="stop-color:#B1B9BF"/>
				<stop  offset="0.4906" style="stop-color:#6D757B"/>
				<stop  offset="0.8284" style="stop-color:#434950"/>
				<stop  offset="1" style="stop-color:#333940"/>
			</linearGradient>
			<rect x="35.3" y="-1160.3" class="st10" width="1.9" height="70.2"/>
		</g>
		<g class="st2">
			<defs>
				<polygon id="SVGID_19_" points="52.4,-1090 52.4,-1084.9 54,-1083.2 54,-1091.7 				"/>
			</defs>
			<clipPath id="SVGID_20_">
				<use xlink:href="#SVGID_19_"  style="overflow:visible;"/>
			</clipPath>
			
				<linearGradient id="SVGID_21_" gradientUnits="userSpaceOnUse" x1="-97.4887" y1="1065.297" x2="-96.8013" y2="1065.297" gradientTransform="matrix(2.4419 0 0 -2.4419 290.4165 1513.9218)">
				<stop  offset="0" style="stop-color:#B3BBC1"/>
				<stop  offset="9.458733e-02" style="stop-color:#A4ACB2"/>
				<stop  offset="0.526" style="stop-color:#626A6F"/>
				<stop  offset="0.8393" style="stop-color:#3A4246"/>
				<stop  offset="1" style="stop-color:#2A3236"/>
			</linearGradient>
			<rect x="52.4" y="-1091.7" class="st11" width="1.7" height="8.5"/>
		</g>
		<g class="st2">
			<defs>
				<rect id="SVGID_22_" x="-147.3" y="-1326" width="578.9" height="409.3"/>
			</defs>
			<clipPath id="SVGID_23_">
				<use xlink:href="#SVGID_22_"  style="overflow:visible;"/>
			</clipPath>
			<polygon class="st12" points="28.3,-1160.3 28.3,-1083.2 30,-1084.9 29.9,-1158.7 			"/>
		</g>
		<g class="st2">
			<defs>
				<path id="SVGID_24_" d="M-4.3-1149.1c0-5.3,4.3-9.5,9.6-9.5c5.3,0,9.5,4.3,9.5,9.5c0,5.2-4.3,9.5-9.5,9.5
					C0-1139.6-4.3-1143.9-4.3-1149.1 M-6-1149.1c0,6.2,5,11.2,11.2,11.2c6.2,0,11.2-5,11.2-11.2c0-6.2-5-11.2-11.2-11.2
					C-0.9-1160.4-6-1155.3-6-1149.1"/>
			</defs>
			<clipPath id="SVGID_25_">
				<use xlink:href="#SVGID_24_"  style="overflow:visible;"/>
			</clipPath>
			
				<linearGradient id="SVGID_26_" gradientUnits="userSpaceOnUse" x1="-33.2486" y1="487.9958" x2="-32.5609" y2="487.9958" gradientTransform="matrix(23.046 23.046 -23.046 23.046 12009.9023 -11637.21)">
				<stop  offset="0" style="stop-color:#ABBAC2"/>
				<stop  offset="1" style="stop-color:#262A30"/>
			</linearGradient>
			<polygon class="st13" points="-17.2,-1149.2 5.3,-1126.7 27.7,-1149.2 5.3,-1171.6 			"/>
		</g>
		<g class="st2">
			<defs>
				<rect id="SVGID_27_" x="-147.3" y="-1326" width="578.9" height="409.3"/>
			</defs>
			<clipPath id="SVGID_28_">
				<use xlink:href="#SVGID_27_"  style="overflow:visible;"/>
			</clipPath>
			<polygon class="st14" points="98.5,-1119.1 54,-1119.1 52.3,-1117.4 96.8,-1117.4 97.7,-1118.3 			"/>
			<path class="st15" d="M37-1186"/>
			<polygon class="st16" points="54,-1124.2 103.8,-1124.2 105.5,-1125.9 52.3,-1125.9 			"/>
		</g>
		<g class="st2">
			<defs>
				<path id="SVGID_29_" d="M-40.1-1121.7c0,19.4,7.6,37.7,21.3,51.5c13.7,13.8,32,21.3,51.4,21.3c19.5,0,37.8-7.6,51.5-21.3
					c13.8-13.8,21.3-32.1,21.3-51.5v-4.2l-1.7,1.7v2.5c0,19-7.4,36.9-20.8,50.3c-13.4,13.4-31.3,20.9-50.4,20.9
					c-19,0-36.8-7.4-50.3-20.9c-13.4-13.5-20.8-31.3-20.8-50.3c0-39.3,31.9-71.2,71.1-71.2l2.7,0l1.7-1.6l-4.4,0
					C-7.5-1194.6-40.1-1161.9-40.1-1121.7"/>
			</defs>
			<clipPath id="SVGID_30_">
				<use xlink:href="#SVGID_29_"  style="overflow:visible;"/>
			</clipPath>
			
				<linearGradient id="SVGID_31_" gradientUnits="userSpaceOnUse" x1="-5.0248" y1="508.2747" x2="-4.3372" y2="508.2747" gradientTransform="matrix(151.0221 151.0221 -151.0221 151.0221 77500.6328 -77175.25)">
				<stop  offset="0" style="stop-color:#B4BDC3"/>
				<stop  offset="1" style="stop-color:#3E454D"/>
			</linearGradient>
			<polygon class="st17" points="-113,-1121.7 32.7,-976.1 178.4,-1121.7 32.7,-1267.4 			"/>
		</g>
		<g class="st2">
			<defs>
				<path id="SVGID_32_" d="M31.7-1187.7c-17.2,0.2-33.4,7.1-45.7,19.3c-12.4,12.5-19.3,29-19.3,46.7c0,17.6,6.9,34.2,19.3,46.6
					c12.3,12.3,28.5,19.1,45.8,19.3h1.7c34.2-0.4,62.7-27.3,65-61.5l0.1-1.8l-0.8,0.8l-0.9,0.9c-2.3,33.6-30.5,60-64.2,60
					c-17.2,0-33.3-6.7-45.5-18.9c-12.1-12.1-18.8-28.3-18.8-45.5c0-17.2,6.7-33.4,18.8-45.5c12.2-12.1,28.3-18.8,45.5-18.8l4.3,0
					l-1.7-1.7l-1.9,0H31.7z"/>
			</defs>
			<clipPath id="SVGID_33_">
				<use xlink:href="#SVGID_32_"  style="overflow:visible;"/>
			</clipPath>
			
				<linearGradient id="SVGID_34_" gradientUnits="userSpaceOnUse" x1="1.3513" y1="518.9668" x2="2.0389" y2="518.9668" gradientTransform="matrix(-191.6987 0 0 -191.6987 357.5898 98363.5391)">
				<stop  offset="0" style="stop-color:#B4BDC3"/>
				<stop  offset="1" style="stop-color:#485159"/>
			</linearGradient>
			<rect x="-33.3" y="-1187.7" class="st18" width="131.8" height="131.9"/>
		</g>
		<g class="st2">
			<defs>
				<rect id="SVGID_35_" x="-147.3" y="-1326" width="578.9" height="409.3"/>
			</defs>
			<clipPath id="SVGID_36_">
				<use xlink:href="#SVGID_35_"  style="overflow:visible;"/>
			</clipPath>
			<polygon class="st19" points="54,-1124.2 52.3,-1125.9 52.3,-1117.4 54,-1119.1 			"/>
		</g>
		<g class="st2">
			<defs>
				<polygon id="SVGID_37_" points="35.3,-1192.9 35.3,-1187.6 37,-1186 37,-1194.5 				"/>
			</defs>
			<clipPath id="SVGID_38_">
				<use xlink:href="#SVGID_37_"  style="overflow:visible;"/>
			</clipPath>
			
				<linearGradient id="SVGID_39_" gradientUnits="userSpaceOnUse" x1="-95.2166" y1="1051.2246" x2="-94.529" y2="1051.2246" gradientTransform="matrix(2.419 0 0 -2.419 265.6738 1352.6583)">
				<stop  offset="0" style="stop-color:#B3BBC1"/>
				<stop  offset="9.458733e-02" style="stop-color:#A4ACB2"/>
				<stop  offset="0.526" style="stop-color:#626A6F"/>
				<stop  offset="0.8393" style="stop-color:#3A4246"/>
				<stop  offset="1" style="stop-color:#2A3236"/>
			</linearGradient>
			<rect x="35.3" y="-1194.5" class="st20" width="1.7" height="8.6"/>
		</g>
		<g class="st2">
			<defs>
				<path id="SVGID_40_" d="M29.2-1159.4v75.3h23.9v-6.7H36.1v-68.6H29.2z M31.7-1193.7c-39.2,0.5-71,32.6-71,71.9
					c0,19.2,7.5,37.3,21.1,50.9c13.6,13.6,31.7,21.1,50.8,21.1c19.3,0,37.3-7.5,50.9-21.1c13.6-13.6,21.1-31.6,21.1-50.9v-3.3
					l-2.8,0H53.2v6.7h44.5c0,0.2,0,0.8,0,1c-2.3,33.9-30.6,60.8-65.1,60.8c-17.4,0-33.8-6.8-46.1-19.1
					c-12.3-12.3-19.1-28.7-19.1-46.1c0-17.4,6.8-33.8,19.1-46.1c12.4-12.3,28.7-19.1,46.1-19.1c0.7,0,2.6,0,3.4,0v-6.7
					c-0.7,0-1.8,0-2.7,0H31.7z"/>
			</defs>
			<clipPath id="SVGID_41_">
				<use xlink:href="#SVGID_40_"  style="overflow:visible;"/>
			</clipPath>
			
				<radialGradient id="SVGID_42_" cx="-1.3499" cy="520.2626" r="0.6876" gradientTransform="matrix(159.9599 0 0 -159.9599 219.5751 82068.9375)" gradientUnits="userSpaceOnUse">
				<stop  offset="0" style="stop-color:#FFFFFF"/>
				<stop  offset="0.35" style="stop-color:#FFFFFF"/>
				<stop  offset="0.5113" style="stop-color:#FBFCFC"/>
				<stop  offset="0.6773" style="stop-color:#EFF2F3"/>
				<stop  offset="0.8448" style="stop-color:#DAE1E5"/>
				<stop  offset="1" style="stop-color:#C0CCD2"/>
			</radialGradient>
			<rect x="-39.3" y="-1193.7" class="st21" width="143.8" height="143.9"/>
		</g>
		<g class="st2">
			<defs>
				<path id="SVGID_43_" d="M-5.1-1149.1c0,5.7,4.7,10.3,10.3,10.3c5.7,0,10.3-4.6,10.3-10.3c0-5.7-4.6-10.3-10.3-10.3
					C-0.5-1159.5-5.1-1154.9-5.1-1149.1"/>
			</defs>
			<clipPath id="SVGID_44_">
				<use xlink:href="#SVGID_43_"  style="overflow:visible;"/>
			</clipPath>
			
				<radialGradient id="SVGID_45_" cx="-9.192" cy="568.5706" r="0.6876" gradientTransform="matrix(23.3573 0 0 -23.3573 215.639 12127.3125)" gradientUnits="userSpaceOnUse">
				<stop  offset="0" style="stop-color:#FFFFFF"/>
				<stop  offset="0.35" style="stop-color:#FFFFFF"/>
				<stop  offset="0.5363" style="stop-color:#FBFCFC"/>
				<stop  offset="0.7307" style="stop-color:#EEF2F4"/>
				<stop  offset="0.9283" style="stop-color:#D9E1E5"/>
				<stop  offset="1" style="stop-color:#D0DADF"/>
			</radialGradient>
			<rect x="-5.1" y="-1159.5" class="st22" width="20.6" height="20.6"/>
		</g>
		<g class="st2">
			<defs>
				<rect id="SVGID_46_" x="-147.3" y="-1326" width="578.9" height="409.3"/>
			</defs>
			<clipPath id="SVGID_47_">
				<use xlink:href="#SVGID_46_"  style="overflow:visible;"/>
			</clipPath>
			<path class="st23" d="M7.1-1157.6c2.4,0,4.5,0.8,6.3,2.2c-1.9-2.4-4.8-4-8.1-4c-5.7,0-10.3,4.6-10.3,10.3c0,3.3,1.6,6.2,4,8.1
				c-1.3-1.7-2.2-3.8-2.2-6.2C-3.3-1153,1.4-1157.6,7.1-1157.6"/>
			<path class="st23" d="M36.1-1193.6c-0.9,0-2.6-0.1-3.5-0.1c-39.6,0-71.9,32.3-71.9,72c0,19.2,7.5,37.3,21.1,50.9
				c0.4,0.4,0.9,0.8,1.3,1.3c-12.8-13.4-19.9-31-19.9-49.6C-36.8-1158.8-8.7-1191.6,36.1-1193.6"/>
			<path class="st23" d="M36.1-1090.8c0,0,4.9,1.4,17.1,1.4v-1.4H36.1z"/>
			<path class="st23" d="M36.1-1157.3v-2.1h-6.9v75.3c0,0,2.1-11.5,2.1-73.2H36.1z"/>
			<path class="st23" d="M104.5-1125l-51.3,0v6.7h1.9v-4.8C99.8-1123.1,104.5-1125,104.5-1125"/>
			<path class="st23" d="M97.7-1118.3c0,0.1,0,0.9,0,1c-2.3,33.9-30.6,60.8-65.1,60.8c-17.4,0-33.8-6.8-46.1-19.1
				c-8-8-13.7-17.8-16.7-28.5c7.7,28.1,33.4,48.4,63.9,48.4c32.8,0,62.9-25.7,64.8-62.6H97.7z"/>
		</g>
	</g>
</g>
</svg>
